<svg width="52" height="52" viewBox="0 0 52 52" fill="none" xmlns="http://www.w3.org/2000/svg">
<path d="M26 2C12.7452 2 2 12.7452 2 26C2 39.2548 12.7452 50 26 50C39.2548 50 50 39.2548 50 26C50 12.7452 39.2548 2 26 2Z" fill="white"/>
<path d="M26 50C12.7452 50 2 39.2548 2 26C2 12.7452 12.7452 2 26 2C39.2548 2 50 12.7452 50 26C50 39.2548 39.2548 50 26 50Z" fill="url(#paint0_linear_1_10)"/>
<path d="M37.75 26C37.75 32.4934 32.4934 37.75 26 37.75C19.5066 37.75 14.25 32.4934 14.25 26C14.25 19.5066 19.5066 14.25 26 14.25C32.4934 14.25 37.75 19.5066 37.75 26Z" fill="url(#paint1_linear_1_10)"/>
<path d="M32.7977 16.25H35.25L26.3125 35.75H23.5L15.75 16.25H18.25L24.875 32.5L32.7977 16.25Z" fill="white"/>
<path d="M26 38C19.3726 38 14 32.6274 14 26C14 19.3726 19.3726 14 26 14C32.6274 14 38 19.3726 38 26C38 32.6274 32.6274 38 26 38ZM26 14.5C19.6482 14.5 14.5 19.6482 14.5 26C14.5 32.3518 19.6482 37.5 26 37.5C32.3518 37.5 37.5 32.3518 37.5 26C37.5 19.6482 32.3518 14.5 26 14.5Z" fill="url(#paint2_linear_1_10)"/>
<path d="M26 38C19.3726 38 14 32.6274 14 26C14 19.3726 19.3726 14 26 14C32.6274 14 38 19.3726 38 26C38 32.6274 32.6274 38 26 38Z" fill="url(#paint3_linear_1_10)"/>
<path d="M26 38C19.3726 38 14 32.6274 14 26C14 19.3726 19.3726 14 26 14C32.6274 14 38 19.3726 38 26C38 32.6274 32.6274 38 26 38ZM26 14.5C19.6482 14.5 14.5 19.6482 14.5 26C14.5 32.3518 19.6482 37.5 26 37.5C32.3518 37.5 37.5 32.3518 37.5 26C37.5 19.6482 32.3518 14.5 26 14.5Z" fill="url(#paint4_linear_1_10)"/>
<path d="M26 38C19.3726 38 14 32.6274 14 26C14 19.3726 19.3726 14 26 14C32.6274 14 38 19.3726 38 26C38 32.6274 32.6274 38 26 38Z" fill="url(#paint5_linear_1_10)"/>
<path d="M26 38C19.3726 38 14 32.6274 14 26C14 19.3726 19.3726 14 26 14C32.6274 14 38 19.3726 38 26C38 32.6274 32.6274 38 26 38ZM26 14.5C19.6482 14.5 14.5 19.6482 14.5 26C14.5 32.3518 19.6482 37.5 26 37.5C32.3518 37.5 37.5 32.3518 37.5 26C37.5 19.6482 32.3518 14.5 26 14.5Z" fill="url(#paint6_linear_1_10)"/>
<path d="M26 38C19.3726 38 14 32.6274 14 26C14 19.3726 19.3726 14 26 14C32.6274 14 38 19.3726 38 26C38 32.6274 32.6274 38 26 38Z" fill="url(#paint7_linear_1_10)"/>
<path d="M26 38C19.3726 38 14 32.6274 14 26C14 19.3726 19.3726 14 26 14C32.6274 14 38 19.3726 38 26C38 32.6274 32.6274 38 26 38ZM26 14.5C19.6482 14.5 14.5 19.6482 14.5 26C14.5 32.3518 19.6482 37.5 26 37.5C32.3518 37.5 37.5 32.3518 37.5 26C37.5 19.6482 32.3518 14.5 26 14.5Z" fill="url(#paint8_linear_1_10)"/>
<path d="M26 38C19.3726 38 14 32.6274 14 26C14 19.3726 19.3726 14 26 14C32.6274 14 38 19.3726 38 26C38 32.6274 32.6274 38 26 38Z" fill="url(#paint9_linear_1_10)"/>
<path d="M26 38C19.3726 38 14 32.6274 14 26C14 19.3726 19.3726 14 26 14C32.6274 14 38 19.3726 38 26C38 32.6274 32.6274 38 26 38ZM26 14.5C19.6482 14.5 14.5 19.6482 14.5 26C14.5 32.3518 19.6482 37.5 26 37.5C32.3518 37.5 37.5 32.3518 37.5 26C37.5 19.6482 32.3518 14.5 26 14.5Z" fill="url(#paint10_linear_1_10)"/>
<path d="M26 38C19.3726 38 14 32.6274 14 26C14 19.3726 19.3726 14 26 14C32.6274 14 38 19.3726 38 26C38 32.6274 32.6274 38 26 38Z" fill="url(#paint11_linear_1_10)"/>
<path d="M26 38C19.3726 38 14 32.6274 14 26C14 19.3726 19.3726 14 26 14C32.6274 14 38 19.3726 38 26C38 32.6274 32.6274 38 26 38ZM26 14.5C19.6482 14.5 14.5 19.6482 14.5 26C14.5 32.3518 19.6482 37.5 26 37.5C32.3518 37.5 37.5 32.3518 37.5 26C37.5 19.6482 32.3518 14.5 26 14.5Z" fill="url(#paint12_linear_1_10)"/>
<path d="M26 38C19.3726 38 14 32.6274 14 26C14 19.3726 19.3726 14 26 14C32.6274 14 38 19.3726 38 26C38 32.6274 32.6274 38 26 38Z" fill="url(#paint13_linear_1_10)"/>
<path d="M26 38C19.3726 38 14 32.6274 14 26C14 19.3726 19.3726 14 26 14C32.6274 14 38 19.3726 38 26C38 32.6274 32.6274 38 26 38ZM26 14.5C19.6482 14.5 14.5 19.6482 14.5 26C14.5 32.3518 19.6482 37.5 26 37.5C32.3518 37.5 37.5 32.3518 37.5 26C37.5 19.6482 32.3518 14.5 26 14.5Z" fill="url(#paint14_linear_1_10)"/>
<path d="M26 38C19.3726 38 14 32.6274 14 26C14 19.3726 19.3726 14 26 14C32.6274 14 38 19.3726 38 26C38 32.6274 32.6274 38 26 38Z" fill="url(#paint15_linear_1_10)"/>
<path d="M26 38C19.3726 38 14 32.6274 14 26C14 19.3726 19.3726 14 26 14C32.6274 14 38 19.3726 38 26C38 32.6274 32.6274 38 26 38ZM26 14.5C19.6482 14.5 14.5 19.6482 14.5 26C14.5 32.3518 19.6482 37.5 26 37.5C32.3518 37.5 37.5 32.3518 37.5 26C37.5 19.6482 32.3518 14.5 26 14.5Z" fill="url(#paint16_linear_1_10)"/>
<path d="M26 38C19.3726 38 14 32.6274 14 26C14 19.3726 19.3726 14 26 14C32.6274 14 38 19.3726 38 26C38 32.6274 32.6274 38 26 38Z" fill="url(#paint17_linear_1_10)"/>
<path d="M26 38C19.3726 38 14 32.6274 14 26C14 19.3726 19.3726 14 26 14C32.6274 14 38 19.3726 38 26C38 32.6274 32.6274 38 26 38ZM26 14.5C19.6482 14.5 14.5 19.6482 14.5 26C14.5 32.3518 19.6482 37.5 26 37.5C32.3518 37.5 37.5 32.3518 37.5 26C37.5 19.6482 32.3518 14.5 26 14.5Z" fill="url(#paint18_linear_1_10)"/>
<path d="M26 38C19.3726 38 14 32.6274 14 26C14 19.3726 19.3726 14 26 14C32.6274 14 38 19.3726 38 26C38 32.6274 32.6274 38 26 38Z" fill="url(#paint19_linear_1_10)"/>
<path d="M26 38C19.3726 38 14 32.6274 14 26C14 19.3726 19.3726 14 26 14C32.6274 14 38 19.3726 38 26C38 32.6274 32.6274 38 26 38ZM26 14.5C19.6482 14.5 14.5 19.6482 14.5 26C14.5 32.3518 19.6482 37.5 26 37.5C32.3518 37.5 37.5 32.3518 37.5 26C37.5 19.6482 32.3518 14.5 26 14.5Z" fill="url(#paint20_linear_1_10)"/>
<path d="M26 38C19.3726 38 14 32.6274 14 26C14 19.3726 19.3726 14 26 14C32.6274 14 38 19.3726 38 26C38 32.6274 32.6274 38 26 38Z" fill="url(#paint21_linear_1_10)"/>
<path d="M26 38C19.3726 38 14 32.6274 14 26C14 19.3726 19.3726 14 26 14C32.6274 14 38 19.3726 38 26C38 32.6274 32.6274 38 26 38ZM26 14.5C19.6482 14.5 14.5 19.6482 14.5 26C14.5 32.3518 19.6482 37.5 26 37.5C32.3518 37.5 37.5 32.3518 37.5 26C37.5 19.6482 32.3518 14.5 26 14.5Z" fill="url(#paint22_linear_1_10)"/>
<path d="M26 38C19.3726 38 14 32.6274 14 26C14 19.3726 19.3726 14 26 14C32.6274 14 38 19.3726 38 26C38 32.6274 32.6274 38 26 38Z" fill="url(#paint23_linear_1_10)"/>
<path d="M26 38C19.3726 38 14 32.6274 14 26C14 19.3726 19.3726 14 26 14C32.6274 14 38 19.3726 38 26C38 32.6274 32.6274 38 26 38ZM26 14.5C19.6482 14.5 14.5 19.6482 14.5 26C14.5 32.3518 19.6482 37.5 26 37.5C32.3518 37.5 37.5 32.3518 37.5 26C37.5 19.6482 32.3518 14.5 26 14.5Z" fill="url(#paint24_linear_1_10)"/>
<path d="M26 38C19.3726 38 14 32.6274 14 26C14 19.3726 19.3726 14 26 14C32.6274 14 38 19.3726 38 26C38 32.6274 32.6274 38 26 38Z" fill="url(#paint25_linear_1_10)"/>
<path d="M26 38C19.3726 38 14 32.6274 14 26C14 19.3726 19.3726 14 26 14C32.6274 14 38 19.3726 38 26C38 32.6274 32.6274 38 26 38ZM26 14.5C19.6482 14.5 14.5 19.6482 14.5 26C14.5 32.3518 19.6482 37.5 26 37.5C32.3518 37.5 37.5 32.3518 37.5 26C37.5 19.6482 32.3518 14.5 26 14.5Z" fill="url(#paint26_linear_1_10)"/>
<path d="M26 38C19.3726 38 14 32.6274 14 26C14 19.3726 19.3726 14 26 14C32.6274 14 38 19.3726 38 26C38 32.6274 32.6274 38 26 38Z" fill="url(#paint27_linear_1_10)"/>
<path d="M26 38C19.3726 38 14 32.6274 14 26C14 19.3726 19.3726 14 26 14C32.6274 14 38 19.3726 38 26C38 32.6274 32.6274 38 26 38ZM26 14.5C19.6482 14.5 14.5 19.6482 14.5 26C14.5 32.3518 19.6482 37.5 26 37.5C32.3518 37.5 37.5 32.3518 37.5 26C37.5 19.6482 32.3518 14.5 26 14.5Z" fill="url(#paint28_linear_1_10)"/>
<path d="M26 38C19.3726 38 14 32.6274 14 26C14 19.3726 19.3726 14 26 14C32.6274 14 38 19.3726 38 26C38 32.6274 32.6274 38 26 38Z" fill="url(#paint29_linear_1_10)"/>
<path d="M26 38C19.3726 38 14 32.6274 14 26C14 19.3726 19.3726 14 26 14C32.6274 14 38 19.3726 38 26C38 32.6274 32.6274 38 26 38ZM26 14.5C19.6482 14.5 14.5 19.6482 14.5 26C14.5 32.3518 19.6482 37.5 26 37.5C32.3518 37.5 37.5 32.3518 37.5 26C37.5 19.6482 32.3518 14.5 26 14.5Z" fill="url(#paint30_linear_1_10)"/>
<path d="M26 38C19.3726 38 14 32.6274 14 26C14 19.3726 19.3726 14 26 14C32.6274 14 38 19.3726 38 26C38 32.6274 32.6274 38 26 38Z" fill="url(#paint31_linear_1_10)"/>
<path d="M26 38C19.3726 38 14 32.6274 14 26C14 19.3726 19.3726 14 26 14C32.6274 14 38 19.3726 38 26C38 32.6274 32.6274 38 26 38ZM26 14.5C19.6482 14.5 14.5 19.6482 14.5 26C14.5 32.3518 19.6482 37.5 26 37.5C32.3518 37.5 37.5 32.3518 37.5 26C37.5 19.6482 32.3518 14.5 26 14.5Z" fill="url(#paint32_linear_1_10)"/>
<path d="M26 38C19.3726 38 14 32.6274 14 26C14 19.3726 19.3726 14 26 14C32.6274 14 38 19.3726 38 26C38 32.6274 32.6274 38 26 38Z" fill="url(#paint33_linear_1_10)"/>
<path d="M26 38C19.3726 38 14 32.6274 14 26C14 19.3726 19.3726 14 26 14C32.6274 14 38 19.3726 38 26C38 32.6274 32.6274 38 26 38ZM26 14.5C19.6482 14.5 14.5 19.6482 14.5 26C14.5 32.3518 19.6482 37.5 26 37.5C32.3518 37.5 37.5 32.3518 37.5 26C37.5 19.6482 32.3518 14.5 26 14.5Z" fill="url(#paint34_linear_1_10)"/>
<path d="M26 38C19.3726 38 14 32.6274 14 26C14 19.3726 19.3726 14 26 14C32.6274 14 38 19.3726 38 26C38 32.6274 32.6274 38 26 38Z" fill="url(#paint35_linear_1_10)"/>
<path d="M26 38C19.3726 38 14 32.6274 14 26C14 19.3726 19.3726 14 26 14C32.6274 14 38 19.3726 38 26C38 32.6274 32.6274 38 26 38ZM26 14.5C19.6482 14.5 14.5 19.6482 14.5 26C14.5 32.3518 19.6482 37.5 26 37.5C32.3518 37.5 37.5 32.3518 37.5 26C37.5 19.6482 32.3518 14.5 26 14.5Z" fill="url(#paint36_linear_1_10)"/>
<path d="M26 38C19.3726 38 14 32.6274 14 26C14 19.3726 19.3726 14 26 14C32.6274 14 38 19.3726 38 26C38 32.6274 32.6274 38 26 38Z" fill="url(#paint37_linear_1_10)"/>
<path d="M26 38C19.3726 38 14 32.6274 14 26C14 19.3726 19.3726 14 26 14C32.6274 14 38 19.3726 38 26C38 32.6274 32.6274 38 26 38ZM26 14.5C19.6482 14.5 14.5 19.6482 14.5 26C14.5 32.3518 19.6482 37.5 26 37.5C32.3518 37.5 37.5 32.3518 37.5 26C37.5 19.6482 32.3518 14.5 26 14.5Z" fill="url(#paint38_linear_1_10)"/>
<path d="M26 38C19.3726 38 14 32.6274 14 26C14 19.3726 19.3726 14 26 14C32.6274 14 38 19.3726 38 26C38 32.6274 32.6274 38 26 38Z" fill="url(#paint39_linear_1_10)"/>
<path d="M26 38C19.3726 38 14 32.6274 14 26C14 19.3726 19.3726 14 26 14C32.6274 14 38 19.3726 38 26C38 32.6274 32.6274 38 26 38ZM26 14.5C19.6482 14.5 14.5 19.6482 14.5 26C14.5 32.3518 19.6482 37.5 26 37.5C32.3518 37.5 37.5 32.3518 37.5 26C37.5 19.6482 32.3518 14.5 26 14.5Z" fill="url(#paint40_linear_1_10)"/>
<path d="M26 38C19.3726 38 14 32.6274 14 26C14 19.3726 19.3726 14 26 14C32.6274 14 38 19.3726 38 26C38 32.6274 32.6274 38 26 38Z" fill="url(#paint41_linear_1_10)"/>
<path d="M26 38C19.3726 38 14 32.6274 14 26C14 19.3726 19.3726 14 26 14C32.6274 14 38 19.3726 38 26C38 32.6274 32.6274 38 26 38ZM26 14.5C19.6482 14.5 14.5 19.6482 14.5 26C14.5 32.3518 19.6482 37.5 26 37.5C32.3518 37.5 37.5 32.3518 37.5 26C37.5 19.6482 32.3518 14.5 26 14.5Z" fill="url(#paint42_linear_1_10)"/>
<path d="M26 38C19.3726 38 14 32.6274 14 26C14 19.3726 19.3726 14 26 14C32.6274 14 38 19.3726 38 26C38 32.6274 32.6274 38 26 38Z" fill="url(#paint43_linear_1_10)"/>
<path d="M26 38C19.3726 38 14 32.6274 14 26C14 19.3726 19.3726 14 26 14C32.6274 14 38 19.3726 38 26C38 32.6274 32.6274 38 26 38ZM26 14.5C19.6482 14.5 14.5 19.6482 14.5 26C14.5 32.3518 19.6482 37.5 26 37.5C32.3518 37.5 37.5 32.3518 37.5 26C37.5 19.6482 32.3518 14.5 26 14.5Z" fill="url(#paint44_linear_1_10)"/>
<path d="M26 38C19.3726 38 14 32.6274 14 26C14 19.3726 19.3726 14 26 14C32.6274 14 38 19.3726 38 26C38 32.6274 32.6274 38 26 38Z" fill="url(#paint45_linear_1_10)"/>
<path d="M26 38C19.3726 38 14 32.6274 14 26C14 19.3726 19.3726 14 26 14C32.6274 14 38 19.3726 38 26C38 32.6274 32.6274 38 26 38ZM26 14.5C19.6482 14.5 14.5 19.6482 14.5 26C14.5 32.3518 19.6482 37.5 26 37.5C32.3518 37.5 37.5 32.3518 37.5 26C37.5 19.6482 32.3518 14.5 26 14.5Z" fill="url(#paint46_linear_1_10)"/>
<path d="M26 38C19.3726 38 14 32.6274 14 26C14 19.3726 19.3726 14 26 14C32.6274 14 38 19.3726 38 26C38 32.6274 32.6274 38 26 38Z" fill="url(#paint47_linear_1_10)"/>
<path d="M26 38C19.3726 38 14 32.6274 14 26C14 19.3726 19.3726 14 26 14C32.6274 14 38 19.3726 38 26C38 32.6274 32.6274 38 26 38ZM26 14.5C19.6482 14.5 14.5 19.6482 14.5 26C14.5 32.3518 19.6482 37.5 26 37.5C32.3518 37.5 37.5 32.3518 37.5 26C37.5 19.6482 32.3518 14.5 26 14.5Z" fill="url(#paint48_linear_1_10)"/>
<path d="M26 38C19.3726 38 14 32.6274 14 26C14 19.3726 19.3726 14 26 14C32.6274 14 38 19.3726 38 26C38 32.6274 32.6274 38 26 38Z" fill="url(#paint49_linear_1_10)"/>
<path d="M26 38C19.3726 38 14 32.6274 14 26C14 19.3726 19.3726 14 26 14C32.6274 14 38 19.3726 38 26C38 32.6274 32.6274 38 26 38ZM26 14.5C19.6482 14.5 14.5 19.6482 14.5 26C14.5 32.3518 19.6482 37.5 26 37.5C32.3518 37.5 37.5 32.3518 37.5 26C37.5 19.6482 32.3518 14.5 26 14.5Z" fill="url(#paint50_linear_1_10)"/>
<path d="M26 38C19.3726 38 14 32.6274 14 26C14 19.3726 19.3726 14 26 14C32.6274 14 38 19.3726 38 26C38 32.6274 32.6274 38 26 38Z" fill="url(#paint51_linear_1_10)"/>
<path d="M26 38C19.3726 38 14 32.6274 14 26C14 19.3726 19.3726 14 26 14C32.6274 14 38 19.3726 38 26C38 32.6274 32.6274 38 26 38ZM26 14.5C19.6482 14.5 14.5 19.6482 14.5 26C14.5 32.3518 19.6482 37.5 26 37.5C32.3518 37.5 37.5 32.3518 37.5 26C37.5 19.6482 32.3518 14.5 26 14.5Z" fill="url(#paint52_linear_1_10)"/>
<path d="M26 38C19.3726 38 14 32.6274 14 26C14 19.3726 19.3726 14 26 14C32.6274 14 38 19.3726 38 26C38 32.6274 32.6274 38 26 38Z" fill="url(#paint53_linear_1_10)"/>
<path d="M26 38C19.3726 38 14 32.6274 14 26C14 19.3726 19.3726 14 26 14C32.6274 14 38 19.3726 38 26C38 32.6274 32.6274 38 26 38ZM26 14.5C19.6482 14.5 14.5 19.6482 14.5 26C14.5 32.3518 19.6482 37.5 26 37.5C32.3518 37.5 37.5 32.3518 37.5 26C37.5 19.6482 32.3518 14.5 26 14.5Z" fill="url(#paint54_linear_1_10)"/>
<path d="M26 38C19.3726 38 14 32.6274 14 26C14 19.3726 19.3726 14 26 14C32.6274 14 38 19.3726 38 26C38 32.6274 32.6274 38 26 38Z" fill="url(#paint55_linear_1_10)"/>
<path d="M26 38C19.3726 38 14 32.6274 14 26C14 19.3726 19.3726 14 26 14C32.6274 14 38 19.3726 38 26C38 32.6274 32.6274 38 26 38ZM26 14.5C19.6482 14.5 14.5 19.6482 14.5 26C14.5 32.3518 19.6482 37.5 26 37.5C32.3518 37.5 37.5 32.3518 37.5 26C37.5 19.6482 32.3518 14.5 26 14.5Z" fill="url(#paint56_linear_1_10)"/>
<path d="M26 38C19.3726 38 14 32.6274 14 26C14 19.3726 19.3726 14 26 14C32.6274 14 38 19.3726 38 26C38 32.6274 32.6274 38 26 38Z" fill="url(#paint57_linear_1_10)"/>
<path d="M26 38C19.3726 38 14 32.6274 14 26C14 19.3726 19.3726 14 26 14C32.6274 14 38 19.3726 38 26C38 32.6274 32.6274 38 26 38ZM26 14.5C19.6482 14.5 14.5 19.6482 14.5 26C14.5 32.3518 19.6482 37.5 26 37.5C32.3518 37.5 37.5 32.3518 37.5 26C37.5 19.6482 32.3518 14.5 26 14.5Z" fill="url(#paint58_linear_1_10)"/>
<path d="M26 38C19.3726 38 14 32.6274 14 26C14 19.3726 19.3726 14 26 14C32.6274 14 38 19.3726 38 26C38 32.6274 32.6274 38 26 38Z" fill="url(#paint59_linear_1_10)"/>
<path d="M26 38C19.3726 38 14 32.6274 14 26C14 19.3726 19.3726 14 26 14C32.6274 14 38 19.3726 38 26C38 32.6274 32.6274 38 26 38ZM26 14.5C19.6482 14.5 14.5 19.6482 14.5 26C14.5 32.3518 19.6482 37.5 26 37.5C32.3518 37.5 37.5 32.3518 37.5 26C37.5 19.6482 32.3518 14.5 26 14.5Z" fill="url(#paint60_linear_1_10)"/>
<path d="M26 38C19.3726 38 14 32.6274 14 26C14 19.3726 19.3726 14 26 14C32.6274 14 38 19.3726 38 26C38 32.6274 32.6274 38 26 38Z" fill="url(#paint61_linear_1_10)"/>
<path d="M26 38C19.3726 38 14 32.6274 14 26C14 19.3726 19.3726 14 26 14C32.6274 14 38 19.3726 38 26C38 32.6274 32.6274 38 26 38ZM26 14.5C19.6482 14.5 14.5 19.6482 14.5 26C14.5 32.3518 19.6482 37.5 26 37.5C32.3518 37.5 37.5 32.3518 37.5 26C37.5 19.6482 32.3518 14.5 26 14.5Z" fill="url(#paint62_linear_1_10)"/>
<path d="M26 38C19.3726 38 14 32.6274 14 26C14 19.3726 19.3726 14 26 14C32.6274 14 38 19.3726 38 26C38 32.6274 32.6274 38 26 38Z" fill="url(#paint63_linear_1_10)"/>
<path d="M26 38C19.3726 38 14 32.6274 14 26C14 19.3726 19.3726 14 26 14C32.6274 14 38 19.3726 38 26C38 32.6274 32.6274 38 26 38ZM26 14.5C19.6482 14.5 14.5 19.6482 14.5 26C14.5 32.3518 19.6482 37.5 26 37.5C32.3518 37.5 37.5 32.3518 37.5 26C37.5 19.6482 32.3518 14.5 26 14.5Z" fill="url(#paint64_linear_1_10)"/>
<path d="M26 38C19.3726 38 14 32.6274 14 26C14 19.3726 19.3726 14 26 14C32.6274 14 38 19.3726 38 26C38 32.6274 32.6274 38 26 38Z" fill="url(#paint65_linear_1_10)"/>
<path d="M26 38C19.3726 38 14 32.6274 14 26C14 19.3726 19.3726 14 26 14C32.6274 14 38 19.3726 38 26C38 32.6274 32.6274 38 26 38ZM26 14.5C19.6482 14.5 14.5 19.6482 14.5 26C14.5 32.3518 19.6482 37.5 26 37.5C32.3518 37.5 37.5 32.3518 37.5 26C37.5 19.6482 32.3518 14.5 26 14.5Z" fill="url(#paint66_linear_1_10)"/>
<path d="M26 38C19.3726 38 14 32.6274 14 26C14 19.3726 19.3726 14 26 14C32.6274 14 38 19.3726 38 26C38 32.6274 32.6274 38 26 38Z" fill="url(#paint67_linear_1_10)"/>
<path d="M26 38C19.3726 38 14 32.6274 14 26C14 19.3726 19.3726 14 26 14C32.6274 14 38 19.3726 38 26C38 32.6274 32.6274 38 26 38ZM26 14.5C19.6482 14.5 14.5 19.6482 14.5 26C14.5 32.3518 19.6482 37.5 26 37.5C32.3518 37.5 37.5 32.3518 37.5 26C37.5 19.6482 32.3518 14.5 26 14.5Z" fill="url(#paint68_linear_1_10)"/>
<path d="M26 38C19.3726 38 14 32.6274 14 26C14 19.3726 19.3726 14 26 14C32.6274 14 38 19.3726 38 26C38 32.6274 32.6274 38 26 38Z" fill="url(#paint69_linear_1_10)"/>
<path d="M26 38C19.3726 38 14 32.6274 14 26C14 19.3726 19.3726 14 26 14C32.6274 14 38 19.3726 38 26C38 32.6274 32.6274 38 26 38ZM26 14.5C19.6482 14.5 14.5 19.6482 14.5 26C14.5 32.3518 19.6482 37.5 26 37.5C32.3518 37.5 37.5 32.3518 37.5 26C37.5 19.6482 32.3518 14.5 26 14.5Z" fill="url(#paint70_linear_1_10)"/>
<path d="M26 38C19.3726 38 14 32.6274 14 26C14 19.3726 19.3726 14 26 14C32.6274 14 38 19.3726 38 26C38 32.6274 32.6274 38 26 38Z" fill="url(#paint71_linear_1_10)"/>
<defs>
<linearGradient id="paint0_linear_1_10" x1="26" y1="2" x2="26" y2="50" gradientUnits="userSpaceOnUse">
<stop stop-color="#0D47A1"/>
<stop offset="1" stop-color="#0D47A1"/>
</linearGradient>
<linearGradient id="paint1_linear_1_10" x1="26" y1="14.25" x2="26" y2="37.75" gradientUnits="userSpaceOnUse">
<stop stop-color="#1976D2"/>
<stop offset="1" stop-color="#1976D2"/>
</linearGradient>
<linearGradient id="paint2_linear_1_10" x1="26" y1="14" x2="26" y2="38" gradientUnits="userSpaceOnUse">
<stop stop-color="white" stop-opacity="0.2"/>
<stop offset="1" stop-color="white" stop-opacity="0"/>
</linearGradient>
<linearGradient id="paint3_linear_1_10" x1="26" y1="14" x2="26" y2="38" gradientUnits="userSpaceOnUse">
<stop stop-color="#1976D2"/>
<stop offset="1" stop-color="#1976D2"/>
</linearGradient>
<linearGradient id="paint4_linear_1_10" x1="26" y1="14" x2="26" y2="38" gradientUnits="userSpaceOnUse">
<stop stop-color="white" stop-opacity="0.2"/>
<stop offset="1" stop-color="white" stop-opacity="0"/>
</linearGradient>
<linearGradient id="paint5_linear_1_10" x1="26" y1="14" x2="26" y2="38" gradientUnits="userSpaceOnUse">
<stop stop-color="#1976D2"/>
<stop offset="1" stop-color="#1976D2"/>
</linearGradient>
<linearGradient id="paint6_linear_1_10" x1="26" y1="14" x2="26" y2="38" gradientUnits="userSpaceOnUse">
<stop stop-color="white" stop-opacity="0.2"/>
<stop offset="1" stop-color="white" stop-opacity="0"/>
</linearGradient>
<linearGradient id="paint7_linear_1_10" x1="26" y1="14" x2="26" y2="38" gradientUnits="userSpaceOnUse">
<stop stop-color="#1976D2"/>
<stop offset="1" stop-color="#1976D2"/>
</linearGradient>
<linearGradient id="paint8_linear_1_10" x1="26" y1="14" x2="26" y2="38" gradientUnits="userSpaceOnUse">
<stop stop-color="white" stop-opacity="0.2"/>
<stop offset="1" stop-color="white" stop-opacity="0"/>
</linearGradient>
<linearGradient id="paint9_linear_1_10" x1="26" y1="14" x2="26" y2="38" gradientUnits="userSpaceOnUse">
<stop stop-color="#1976D2"/>
<stop offset="1" stop-color="#1976D2"/>
</linearGradient>
<linearGradient id="paint10_linear_1_10" x1="26" y1="14" x2="26" y2="38" gradientUnits="userSpaceOnUse">
<stop stop-color="white" stop-opacity="0.2"/>
<stop offset="1" stop-color="white" stop-opacity="0"/>
</linearGradient>
<linearGradient id="paint11_linear_1_10" x1="26" y1="14" x2="26" y2="38" gradientUnits="userSpaceOnUse">
<stop stop-color="#1976D2"/>
<stop offset="1" stop-color="#1976D2"/>
</linearGradient>
<linearGradient id="paint12_linear_1_10" x1="26" y1="14" x2="26" y2="38" gradientUnits="userSpaceOnUse">
<stop stop-color="white" stop-opacity="0.2"/>
<stop offset="1" stop-color="white" stop-opacity="0"/>
</linearGradient>
<linearGradient id="paint13_linear_1_10" x1="26" y1="14" x2="26" y2="38" gradientUnits="userSpaceOnUse">
<stop stop-color="#1976D2"/>
<stop offset="1" stop-color="#1976D2"/>
</linearGradient>
<linearGradient id="paint14_linear_1_10" x1="26" y1="14" x2="26" y2="38" gradientUnits="userSpaceOnUse">
<stop stop-color="white" stop-opacity="0.2"/>
<stop offset="1" stop-color="white" stop-opacity="0"/>
</linearGradient>
<linearGradient id="paint15_linear_1_10" x1="26" y1="14" x2="26" y2="38" gradientUnits="userSpaceOnUse">
<stop stop-color="#1976D2"/>
<stop offset="1" stop-color="#1976D2"/>
</linearGradient>
<linearGradient id="paint16_linear_1_10" x1="26" y1="14" x2="26" y2="38" gradientUnits="userSpaceOnUse">
<stop stop-color="white" stop-opacity="0.2"/>
<stop offset="1" stop-color="white" stop-opacity="0"/>
</linearGradient>
<linearGradient id="paint17_linear_1_10" x1="26" y1="14" x2="26" y2="38" gradientUnits="userSpaceOnUse">
<stop stop-color="#1976D2"/>
<stop offset="1" stop-color="#1976D2"/>
</linearGradient>
<linearGradient id="paint18_linear_1_10" x1="26" y1="14" x2="26" y2="38" gradientUnits="userSpaceOnUse">
<stop stop-color="white" stop-opacity="0.2"/>
<stop offset="1" stop-color="white" stop-opacity="0"/>
</linearGradient>
<linearGradient id="paint19_linear_1_10" x1="26" y1="14" x2="26" y2="38" gradientUnits="userSpaceOnUse">
<stop stop-color="#1976D2"/>
<stop offset="1" stop-color="#1976D2"/>
</linearGradient>
<linearGradient id="paint20_linear_1_10" x1="26" y1="14" x2="26" y2="38" gradientUnits="userSpaceOnUse">
<stop stop-color="white" stop-opacity="0.2"/>
<stop offset="1" stop-color="white" stop-opacity="0"/>
</linearGradient>
<linearGradient id="paint21_linear_1_10" x1="26" y1="14" x2="26" y2="38" gradientUnits="userSpaceOnUse">
<stop stop-color="#1976D2"/>
<stop offset="1" stop-color="#1976D2"/>
</linearGradient>
<linearGradient id="paint22_linear_1_10" x1="26" y1="14" x2="26" y2="38" gradientUnits="userSpaceOnUse">
<stop stop-color="white" stop-opacity="0.2"/>
<stop offset="1" stop-color="white" stop-opacity="0"/>
</linearGradient>
<linearGradient id="paint23_linear_1_10" x1="26" y1="14" x2="26" y2="38" gradientUnits="userSpaceOnUse">
<stop stop-color="#1976D2"/>
<stop offset="1" stop-color="#1976D2"/>
</linearGradient>
<linearGradient id="paint24_linear_1_10" x1="26" y1="14" x2="26" y2="38" gradientUnits="userSpaceOnUse">
<stop stop-color="white" stop-opacity="0.2"/>
<stop offset="1" stop-color="white" stop-opacity="0"/>
</linearGradient>
<linearGradient id="paint25_linear_1_10" x1="26" y1="14" x2="26" y2="38" gradientUnits="userSpaceOnUse">
<stop stop-color="#1976D2"/>
<stop offset="1" stop-color="#1976D2"/>
</linearGradient>
<linearGradient id="paint26_linear_1_10" x1="26" y1="14" x2="26" y2="38" gradientUnits="userSpaceOnUse">
<stop stop-color="white" stop-opacity="0.2"/>
<stop offset="1" stop-color="white" stop-opacity="0"/>
</linearGradient>
<linearGradient id="paint27_linear_1_10" x1="26" y1="14" x2="26" y2="38" gradientUnits="userSpaceOnUse">
<stop stop-color="#1976D2"/>
<stop offset="1" stop-color="#1976D2"/>
</linearGradient>
<linearGradient id="paint28_linear_1_10" x1="26" y1="14" x2="26" y2="38" gradientUnits="userSpaceOnUse">
<stop stop-color="white" stop-opacity="0.2"/>
<stop offset="1" stop-color="white" stop-opacity="0"/>
</linearGradient>
<linearGradient id="paint29_linear_1_10" x1="26" y1="14" x2="26" y2="38" gradientUnits="userSpaceOnUse">
<stop stop-color="#1976D2"/>
<stop offset="1" stop-color="#1976D2"/>
</linearGradient>
<linearGradient id="paint30_linear_1_10" x1="26" y1="14" x2="26" y2="38" gradientUnits="userSpaceOnUse">
<stop stop-color="white" stop-opacity="0.2"/>
<stop offset="1" stop-color="white" stop-opacity="0"/>
</linearGradient>
<linearGradient id="paint31_linear_1_10" x1="26" y1="14" x2="26" y2="38" gradientUnits="userSpaceOnUse">
<stop stop-color="#1976D2"/>
<stop offset="1" stop-color="#1976D2"/>
</linearGradient>
<linearGradient id="paint32_linear_1_10" x1="26" y1="14" x2="26" y2="38" gradientUnits="userSpaceOnUse">
<stop stop-color="white" stop-opacity="0.2"/>
<stop offset="1" stop-color="white" stop-opacity="0"/>
</linearGradient>
<linearGradient id="paint33_linear_1_10" x1="26" y1="14" x2="26" y2="38" gradientUnits="userSpaceOnUse">
<stop stop-color="#1976D2"/>
<stop offset="1" stop-color="#1976D2"/>
</linearGradient>
<linearGradient id="paint34_linear_1_10" x1="26" y1="14" x2="26" y2="38" gradientUnits="userSpaceOnUse">
<stop stop-color="white" stop-opacity="0.2"/>
<stop offset="1" stop-color="white" stop-opacity="0"/>
</linearGradient>
<linearGradient id="paint35_linear_1_10" x1="26" y1="14" x2="26" y2="38" gradientUnits="userSpaceOnUse">
<stop stop-color="#1976D2"/>
<stop offset="1" stop-color="#1976D2"/>
</linearGradient>
<linearGradient id="paint36_linear_1_10" x1="26" y1="14" x2="26" y2="38" gradientUnits="userSpaceOnUse">
<stop stop-color="white" stop-opacity="0.2"/>
<stop offset="1" stop-color="white" stop-opacity="0"/>
</linearGradient>
<linearGradient id="paint37_linear_1_10" x1="26" y1="14" x2="26" y2="38" gradientUnits="userSpaceOnUse">
<stop stop-color="#1976D2"/>
<stop offset="1" stop-color="#1976D2"/>
</linearGradient>
<linearGradient id="paint38_linear_1_10" x1="26" y1="14" x2="26" y2="38" gradientUnits="userSpaceOnUse">
<stop stop-color="white" stop-opacity="0.2"/>
<stop offset="1" stop-color="white" stop-opacity="0"/>
</linearGradient>
<linearGradient id="paint39_linear_1_10" x1="26" y1="14" x2="26" y2="38" gradientUnits="userSpaceOnUse">
<stop stop-color="#1976D2"/>
<stop offset="1" stop-color="#1976D2"/>
</linearGradient>
<linearGradient id="paint40_linear_1_10" x1="26" y1="14" x2="26" y2="38" gradientUnits="userSpaceOnUse">
<stop stop-color="white" stop-opacity="0.2"/>
<stop offset="1" stop-color="white" stop-opacity="0"/>
</linearGradient>
<linearGradient id="paint41_linear_1_10" x1="26" y1="14" x2="26" y2="38" gradientUnits="userSpaceOnUse">
<stop stop-color="#1976D2"/>
<stop offset="1" stop-color="#1976D2"/>
</linearGradient>
<linearGradient id="paint42_linear_1_10" x1="26" y1="14" x2="26" y2="38" gradientUnits="userSpaceOnUse">
<stop stop-color="white" stop-opacity="0.2"/>
<stop offset="1" stop-color="white" stop-opacity="0"/>
</linearGradient>
<linearGradient id="paint43_linear_1_10" x1="26" y1="14" x2="26" y2="38" gradientUnits="userSpaceOnUse">
<stop stop-color="#1976D2"/>
<stop offset="1" stop-color="#1976D2"/>
</linearGradient>
<linearGradient id="paint44_linear_1_10" x1="26" y1="14" x2="26" y2="38" gradientUnits="userSpaceOnUse">
<stop stop-color="white" stop-opacity="0.2"/>
<stop offset="1" stop-color="white" stop-opacity="0"/>
</linearGradient>
<linearGradient id="paint45_linear_1_10" x1="26" y1="14" x2="26" y2="38" gradientUnits="userSpaceOnUse">
<stop stop-color="#1976D2"/>
<stop offset="1" stop-color="#1976D2"/>
</linearGradient>
<linearGradient id="paint46_linear_1_10" x1="26" y1="14" x2="26" y2="38" gradientUnits="userSpaceOnUse">
<stop stop-color="white" stop-opacity="0.2"/>
<stop offset="1" stop-color="white" stop-opacity="0"/>
</linearGradient>
<linearGradient id="paint47_linear_1_10" x1="26" y1="14" x2="26" y2="38" gradientUnits="userSpaceOnUse">
<stop stop-color="#1976D2"/>
<stop offset="1" stop-color="#1976D2"/>
</linearGradient>
<linearGradient id="paint48_linear_1_10" x1="26" y1="14" x2="26" y2="38" gradientUnits="userSpaceOnUse">
<stop stop-color="white" stop-opacity="0.2"/>
<stop offset="1" stop-color="white" stop-opacity="0"/>
</linearGradient>
<linearGradient id="paint49_linear_1_10" x1="26" y1="14" x2="26" y2="38" gradientUnits="userSpaceOnUse">
<stop stop-color="#1976D2"/>
<stop offset="1" stop-color="#1976D2"/>
</linearGradient>
<linearGradient id="paint50_linear_1_10" x1="26" y1="14" x2="26" y2="38" gradientUnits="userSpaceOnUse">
<stop stop-color="white" stop-opacity="0.2"/>
<stop offset="1" stop-color="white" stop-opacity="0"/>
</linearGradient>
<linearGradient id="paint51_linear_1_10" x1="26" y1="14" x2="26" y2="38" gradientUnits="userSpaceOnUse">
<stop stop-color="#1976D2"/>
<stop offset="1" stop-color="#1976D2"/>
</linearGradient>
<linearGradient id="paint52_linear_1_10" x1="26" y1="14" x2="26" y2="38" gradientUnits="userSpaceOnUse">
<stop stop-color="white" stop-opacity="0.2"/>
<stop offset="1" stop-color="white" stop-opacity="0"/>
</linearGradient>
<linearGradient id="paint53_linear_1_10" x1="26" y1="14" x2="26" y2="38" gradientUnits="userSpaceOnUse">
<stop stop-color="#1976D2"/>
<stop offset="1" stop-color="#1976D2"/>
</linearGradient>
<linearGradient id="paint54_linear_1_10" x1="26" y1="14" x2="26" y2="38" gradientUnits="userSpaceOnUse">
<stop stop-color="white" stop-opacity="0.2"/>
<stop offset="1" stop-color="white" stop-opacity="0"/>
</linearGradient>
<linearGradient id="paint55_linear_1_10" x1="26" y1="14" x2="26" y2="38" gradientUnits="userSpaceOnUse">
<stop stop-color="#1976D2"/>
<stop offset="1" stop-color="#1976D2"/>
</linearGradient>
<linearGradient id="paint56_linear_1_10" x1="26" y1="14" x2="26" y2="38" gradientUnits="userSpaceOnUse">
<stop stop-color="white" stop-opacity="0.2"/>
<stop offset="1" stop-color="white" stop-opacity="0"/>
</linearGradient>
<linearGradient id="paint57_linear_1_10" x1="26" y1="14" x2="26" y2="38" gradientUnits="userSpaceOnUse">
<stop stop-color="#1976D2"/>
<stop offset="1" stop-color="#1976D2"/>
</linearGradient>
<linearGradient id="paint58_linear_1_10" x1="26" y1="14" x2="26" y2="38" gradientUnits="userSpaceOnUse">
<stop stop-color="white" stop-opacity="0.2"/>
<stop offset="1" stop-color="white" stop-opacity="0"/>
</linearGradient>
<linearGradient id="paint59_linear_1_10" x1="26" y1="14" x2="26" y2="38" gradientUnits="userSpaceOnUse">
<stop stop-color="#1976D2"/>
<stop offset="1" stop-color="#1976D2"/>
</linearGradient>
<linearGradient id="paint60_linear_1_10" x1="26" y1="14" x2="26" y2="38" gradientUnits="userSpaceOnUse">
<stop stop-color="white" stop-opacity="0.2"/>
<stop offset="1" stop-color="white" stop-opacity="0"/>
</linearGradient>
<linearGradient id="paint61_linear_1_10" x1="26" y1="14" x2="26" y2="38" gradientUnits="userSpaceOnUse">
<stop stop-color="#1976D2"/>
<stop offset="1" stop-color="#1976D2"/>
</linearGradient>
<linearGradient id="paint62_linear_1_10" x1="26" y1="14" x2="26" y2="38" gradientUnits="userSpaceOnUse">
<stop stop-color="white" stop-opacity="0.2"/>
<stop offset="1" stop-color="white" stop-opacity="0"/>
</linearGradient>
<linearGradient id="paint63_linear_1_10" x1="26" y1="14" x2="26" y2="38" gradientUnits="userSpaceOnUse">
<stop stop-color="#1976D2"/>
<stop offset="1" stop-color="#1976D2"/>
</linearGradient>
<linearGradient id="paint64_linear_1_10" x1="26" y1="14" x2="26" y2="38" gradientUnits="userSpaceOnUse">
<stop stop-color="white" stop-opacity="0.2"/>
<stop offset="1" stop-color="white" stop-opacity="0"/>
</linearGradient>
<linearGradient id="paint65_linear_1_10" x1="26" y1="14" x2="26" y2="38" gradientUnits="userSpaceOnUse">
<stop stop-color="#1976D2"/>
<stop offset="1" stop-color="#1976D2"/>
</linearGradient>
<linearGradient id="paint66_linear_1_10" x1="26" y1="14" x2="26" y2="38" gradientUnits="userSpaceOnUse">
<stop stop-color="white" stop-opacity="0.2"/>
<stop offset="1" stop-color="white" stop-opacity="0"/>
</linearGradient>
<linearGradient id="paint67_linear_1_10" x1="26" y1="14" x2="26" y2="38" gradientUnits="userSpaceOnUse">
<stop stop-color="#1976D2"/>
<stop offset="1" stop-color="#1976D2"/>
</linearGradient>
<linearGradient id="paint68_linear_1_10" x1="26" y1="14" x2="26" y2="38" gradientUnits="userSpaceOnUse">
<stop stop-color="white" stop-opacity="0.2"/>
<stop offset="1" stop-color="white" stop-opacity="0"/>
</linearGradient>
<linearGradient id="paint69_linear_1_10" x1="26" y1="14" x2="26" y2="38" gradientUnits="userSpaceOnUse">
<stop stop-color="#1976D2"/>
<stop offset="1" stop-color="#1976D2"/>
</linearGradient>
<linearGradient id="paint70_linear_1_10" x1="26" y1="14" x2="26" y2="38" gradientUnits="userSpaceOnUse">
<stop stop-color="white" stop-opacity="0.2"/>
<stop offset="1" stop-color="white" stop-opacity="0"/>
</linearGradient>
<linearGradient id="paint71_linear_1_10" x1="26" y1="14" x2="26" y2="38" gradientUnits="userSpaceOnUse">
<stop stop-color="#1976D2"/>
<stop offset="1" stop-color="#1976D2"/>
</linearGradient>
</defs>
</svg>
